<svg width="480" height="100" viewBox="0 0 480 100" fill="none" xmlns="http://www.w3.org/2000/svg">
<rect width="480" height="100" fill="#1E1E1E"/>
<rect width="480" height="100" fill="#44CC11"/>
<path d="M59.4277 58.2832C58.347 58.2832 57.3477 58.1237 56.4297 57.8047C55.5182 57.4857 54.7337 57.0104 54.0762 56.3789C53.4186 55.7474 52.9076 54.9596 52.543 54.0156C52.1849 53.0716 52.0059 51.9811 52.0059 50.7441C52.0059 49.5918 52.1784 48.5469 52.5234 47.6094C52.8685 46.6719 53.3698 45.8678 54.0273 45.1973C54.6589 44.5527 55.4401 44.0547 56.3711 43.7031C57.3086 43.3516 58.3307 43.1758 59.4375 43.1758C60.0495 43.1758 60.5996 43.2116 61.0879 43.2832C61.5827 43.3483 62.0384 43.4362 62.4551 43.5469C62.8913 43.6706 63.2852 43.8105 63.6367 43.9668C63.9948 44.1165 64.3073 44.2565 64.5742 44.3867V47.9121H64.1445C63.9622 47.7559 63.7311 47.5703 63.4512 47.3555C63.1777 47.1406 62.8652 46.929 62.5137 46.7207C62.1556 46.5124 61.7682 46.3366 61.3516 46.1934C60.9349 46.0501 60.4889 45.9785 60.0137 45.9785C59.4863 45.9785 58.985 46.0632 58.5098 46.2324C58.0345 46.3952 57.5951 46.6686 57.1914 47.0527C56.8073 47.4238 56.4948 47.9154 56.2539 48.5273C56.0195 49.1393 55.9023 49.8815 55.9023 50.7539C55.9023 51.6654 56.0293 52.4271 56.2832 53.0391C56.5436 53.651 56.8691 54.1328 57.2598 54.4844C57.6569 54.8424 58.0996 55.0996 58.5879 55.2559C59.0762 55.4056 59.5579 55.4805 60.0332 55.4805C60.4889 55.4805 60.9382 55.4121 61.3809 55.2754C61.8301 55.1387 62.2435 54.9531 62.6211 54.7188C62.9401 54.5299 63.2363 54.3281 63.5098 54.1133C63.7832 53.8984 64.0078 53.7129 64.1836 53.5566H64.5742V57.0332C64.2096 57.196 63.8613 57.349 63.5293 57.4922C63.1973 57.6354 62.849 57.7591 62.4844 57.8633C62.0091 58 61.5632 58.1042 61.1465 58.1758C60.7298 58.2474 60.1569 58.2832 59.4277 58.2832ZM77.8164 58H67.3281V43.459H71.0781V55.1875H77.8164V58ZM87.9434 58H79.4277V55.4219H81.8105V46.0371H79.4277V43.459H87.9434V46.0371H85.5605V55.4219H87.9434V58ZM97.5723 58.2832C96.4915 58.2832 95.4922 58.1237 94.5742 57.8047C93.6628 57.4857 92.8783 57.0104 92.2207 56.3789C91.5632 55.7474 91.0521 54.9596 90.6875 54.0156C90.3294 53.0716 90.1504 51.9811 90.1504 50.7441C90.1504 49.5918 90.3229 48.5469 90.668 47.6094C91.013 46.6719 91.5143 45.8678 92.1719 45.1973C92.8034 44.5527 93.5846 44.0547 94.5156 43.7031C95.4531 43.3516 96.4753 43.1758 97.582 43.1758C98.194 43.1758 98.7441 43.2116 99.2324 43.2832C99.7272 43.3483 100.183 43.4362 100.6 43.5469C101.036 43.6706 101.43 43.8105 101.781 43.9668C102.139 44.1165 102.452 44.2565 102.719 44.3867V47.9121H102.289C102.107 47.7559 101.876 47.5703 101.596 47.3555C101.322 47.1406 101.01 46.929 100.658 46.7207C100.3 46.5124 99.9128 46.3366 99.4961 46.1934C99.0794 46.0501 98.6335 45.9785 98.1582 45.9785C97.6309 45.9785 97.1296 46.0632 96.6543 46.2324C96.179 46.3952 95.7396 46.6686 95.3359 47.0527C94.9518 47.4238 94.6393 47.9154 94.3984 48.5273C94.1641 49.1393 94.0469 49.8815 94.0469 50.7539C94.0469 51.6654 94.1738 52.4271 94.4277 53.0391C94.6882 53.651 95.0137 54.1328 95.4043 54.4844C95.8014 54.8424 96.2441 55.0996 96.7324 55.2559C97.2207 55.4056 97.7025 55.4805 98.1777 55.4805C98.6335 55.4805 99.0827 55.4121 99.5254 55.2754C99.9746 55.1387 100.388 54.9531 100.766 54.7188C101.085 54.5299 101.381 54.3281 101.654 54.1133C101.928 53.8984 102.152 53.7129 102.328 53.5566H102.719V57.0332C102.354 57.196 102.006 57.349 101.674 57.4922C101.342 57.6354 100.993 57.7591 100.629 57.8633C100.154 58 99.7077 58.1042 99.291 58.1758C98.8743 58.2474 98.3014 58.2832 97.5723 58.2832ZM119.047 58H114.447L110.102 52.1797L109.223 53.2441V58H105.473V43.459H109.223V50.041L114.418 43.459H118.764L113.08 50.1875L119.047 58ZM140.775 58H137.025V51.5938H131.488V58H127.738V43.459H131.488V48.7812H137.025V43.459H140.775V58ZM155.014 58H144.496V43.459H155.014V46.2715H148.227V48.7812H154.525V51.5938H148.227V55.1875H155.014V58ZM166.322 47.9121C166.322 47.5475 166.247 47.235 166.098 46.9746C165.948 46.7142 165.691 46.5091 165.326 46.3594C165.072 46.2552 164.776 46.1934 164.438 46.1738C164.099 46.1478 163.705 46.1348 163.256 46.1348H161.898V50.0508H163.051C163.65 50.0508 164.151 50.0215 164.555 49.9629C164.958 49.9043 165.297 49.7708 165.57 49.5625C165.831 49.3607 166.02 49.1393 166.137 48.8984C166.26 48.651 166.322 48.3223 166.322 47.9121ZM172.172 58H167.592L163.627 52.668H161.898V58H158.168V43.459H164.457C165.316 43.459 166.055 43.5078 166.674 43.6055C167.292 43.7031 167.872 43.9147 168.412 44.2402C168.959 44.5658 169.392 44.9889 169.711 45.5098C170.036 46.0241 170.199 46.6719 170.199 47.4531C170.199 48.5273 169.949 49.403 169.447 50.0801C168.952 50.7572 168.243 51.3203 167.318 51.7695L172.172 58ZM184.33 58H173.812V43.459H184.33V46.2715H177.543V48.7812H183.842V51.5938H177.543V55.1875H184.33V58ZM205.697 46.2715H201.156V58H197.406V46.2715H192.865V43.459H205.697V46.2715ZM222.094 50.7344C222.094 53.0521 221.43 54.8945 220.102 56.2617C218.773 57.6224 216.938 58.3027 214.594 58.3027C212.257 58.3027 210.424 57.6224 209.096 56.2617C207.768 54.8945 207.104 53.0521 207.104 50.7344C207.104 48.3971 207.768 46.5514 209.096 45.1973C210.424 43.8366 212.257 43.1562 214.594 43.1562C216.924 43.1562 218.757 43.8366 220.092 45.1973C221.426 46.5514 222.094 48.3971 222.094 50.7344ZM217.123 54.416C217.488 53.9733 217.758 53.4525 217.934 52.8535C218.109 52.248 218.197 51.5384 218.197 50.7246C218.197 49.8522 218.096 49.11 217.895 48.498C217.693 47.8861 217.429 47.3913 217.104 47.0137C216.771 46.623 216.387 46.3398 215.951 46.1641C215.521 45.9883 215.072 45.9004 214.604 45.9004C214.128 45.9004 213.679 45.985 213.256 46.1543C212.839 46.3236 212.455 46.6035 212.104 46.9941C211.778 47.3587 211.511 47.8633 211.303 48.5078C211.101 49.1458 211 49.888 211 50.7344C211 51.6003 211.098 52.3392 211.293 52.9512C211.495 53.5566 211.758 54.0514 212.084 54.4355C212.41 54.8197 212.79 55.1029 213.227 55.2852C213.663 55.4674 214.122 55.5586 214.604 55.5586C215.085 55.5586 215.544 55.4674 215.98 55.2852C216.417 55.0964 216.798 54.8066 217.123 54.416ZM242.289 58H231.801V43.459H235.551V55.1875H242.289V58ZM257.992 58H254.115L253.109 55.0605H247.719L246.713 58H242.934L248.305 43.459H252.621L257.992 58ZM252.201 52.3945L250.414 47.1797L248.627 52.3945H252.201ZM272.816 52.7363C272.816 54.5332 272.27 55.9102 271.176 56.8672C270.082 57.8242 268.471 58.3027 266.342 58.3027C264.213 58.3027 262.602 57.8242 261.508 56.8672C260.421 55.9102 259.877 54.5365 259.877 52.7461V43.459H263.646V52.5312C263.646 53.5404 263.858 54.2923 264.281 54.7871C264.704 55.2819 265.391 55.5293 266.342 55.5293C267.279 55.5293 267.963 55.2917 268.393 54.8164C268.829 54.3411 269.047 53.5794 269.047 52.5312V43.459H272.816V52.7363ZM289.555 58H285.941L279.77 48.0195V58H276.332V43.459H280.814L286.117 51.7891V43.459H289.555V58ZM299.838 58.2832C298.757 58.2832 297.758 58.1237 296.84 57.8047C295.928 57.4857 295.144 57.0104 294.486 56.3789C293.829 55.7474 293.318 54.9596 292.953 54.0156C292.595 53.0716 292.416 51.9811 292.416 50.7441C292.416 49.5918 292.589 48.5469 292.934 47.6094C293.279 46.6719 293.78 45.8678 294.438 45.1973C295.069 44.5527 295.85 44.0547 296.781 43.7031C297.719 43.3516 298.741 43.1758 299.848 43.1758C300.46 43.1758 301.01 43.2116 301.498 43.2832C301.993 43.3483 302.449 43.4362 302.865 43.5469C303.301 43.6706 303.695 43.8105 304.047 43.9668C304.405 44.1165 304.717 44.2565 304.984 44.3867V47.9121H304.555C304.372 47.7559 304.141 47.5703 303.861 47.3555C303.588 47.1406 303.275 46.929 302.924 46.7207C302.566 46.5124 302.178 46.3366 301.762 46.1934C301.345 46.0501 300.899 45.9785 300.424 45.9785C299.896 45.9785 299.395 46.0632 298.92 46.2324C298.445 46.3952 298.005 46.6686 297.602 47.0527C297.217 47.4238 296.905 47.9154 296.664 48.5273C296.43 49.1393 296.312 49.8815 296.312 50.7539C296.312 51.6654 296.439 52.4271 296.693 53.0391C296.954 53.651 297.279 54.1328 297.67 54.4844C298.067 54.8424 298.51 55.0996 298.998 55.2559C299.486 55.4056 299.968 55.4805 300.443 55.4805C300.899 55.4805 301.348 55.4121 301.791 55.2754C302.24 55.1387 302.654 54.9531 303.031 54.7188C303.35 54.5299 303.646 54.3281 303.92 54.1133C304.193 53.8984 304.418 53.7129 304.594 53.5566H304.984V57.0332C304.62 57.196 304.271 57.349 303.939 57.4922C303.607 57.6354 303.259 57.7591 302.895 57.8633C302.419 58 301.973 58.1042 301.557 58.1758C301.14 58.2474 300.567 58.2832 299.838 58.2832ZM320.775 58H317.025V51.5938H311.488V58H307.738V43.459H311.488V48.7812H317.025V43.459H320.775V58ZM343.334 48.0488C343.334 48.6999 343.22 49.3379 342.992 49.9629C342.764 50.5814 342.439 51.1022 342.016 51.5254C341.436 52.0983 340.788 52.5312 340.072 52.8242C339.363 53.1172 338.477 53.2637 337.416 53.2637H335.082V58H331.332V43.459H337.504C338.428 43.459 339.206 43.5404 339.838 43.7031C340.476 43.8594 341.039 44.097 341.527 44.416C342.113 44.8001 342.559 45.2917 342.865 45.8906C343.178 46.4896 343.334 47.209 343.334 48.0488ZM339.457 48.1367C339.457 47.7266 339.346 47.375 339.125 47.082C338.904 46.7826 338.646 46.5742 338.354 46.457C337.963 46.3008 337.582 46.2161 337.211 46.2031C336.84 46.1836 336.345 46.1738 335.727 46.1738H335.082V50.5293H336.156C336.794 50.5293 337.318 50.4902 337.729 50.4121C338.145 50.334 338.493 50.1777 338.773 49.9434C339.014 49.735 339.187 49.4876 339.291 49.2012C339.402 48.9082 339.457 48.5534 339.457 48.1367ZM359.438 58H355.561L354.555 55.0605H349.164L348.158 58H344.379L349.75 43.459H354.066L359.438 58ZM353.646 52.3945L351.859 47.1797L350.072 52.3945H353.646ZM372.016 58H361.527V43.459H365.277V55.1875H372.016V58ZM384.799 58H374.281V43.459H384.799V46.2715H378.012V48.7812H384.311V51.5938H378.012V55.1875H384.799V58ZM399.33 46.2715H394.789V58H391.039V46.2715H386.498V43.459H399.33V46.2715ZM412.963 46.2715H408.422V58H404.672V46.2715H400.131V43.459H412.963V46.2715ZM425.736 58H415.219V43.459H425.736V46.2715H418.949V48.7812H425.248V51.5938H418.949V55.1875H425.736V58Z" fill="white"/>
</svg>
